<svg xmlns="http://www.w3.org/2000/svg" viewBox="0 0 512 512">
  <path fill="#ef4444" d="M383.8 351.7c2.5-2.5 105.2-92.4 105.2-92.4l-17.5-7.5c-10-4.9-7.4-11.5-5-17.4 2.4-7.6 20.1-67.3 20.1-67.3s-47.7 10-57.7 12.5c-7.5 2.4-10-2.5-12.5-7.5s-15-32.4-15-32.4-52.6 59.9-55.1 62.3c-10 7.5-20.1 0-17.6-10 0-10 27.6-129.6-12.5-139.6-7.5-2.5-12.5 5-15 15-2.5 7.5-2.5 22.5-2.5 22.5s-47.6-25-50.1-22.5c-7.5 7.5-12.5 32.4-12.5 32.4s-32.6-47.4-40.1-44.9c-10 2.5-12.5 10-10 20 2.5 7.5 12.5 30 12.5 30s-60.1 2.5-62.6 5c-7.5 7.5 2.5 20 10 22.5 7.5 2.5 32.6 5 32.6 5s-20.1 32.4-20.1 37.4c0 7.5 5 12.5 12.5 15 10 2.5 22.5-5 25-12.5 2.5-10 12.5-35 12.5-35l25.1 27.5c2.5 2.5 25.1 27.5 25.1 27.5s-27.6 15-30.1 25c-2.5 10 0 22.5 10 25 7.5 2.5 22.5-5 27.6-17.5 2.5-7.5 7.5-22.5 7.5-22.5l27.6 27.5c5 5 27.6 20 30.1 27.5 5 12.5 2.5 27.5-7.5 30s-22.5-7.5-27.6-20c-5-10-7.5-25-7.5-25s-10 7.5-12.5 12.5-7.5 17.5-10 25c-2.5 10-7.5 20-7.5 20s-5-2.5-15-5c-10-2.5-15-5-15-5s-2.5 12.5 0 25c2.5 10 5 17.5 5 17.5s-37.6 7.5-40.1 15c-2.5 7.5 0 20 7.5 22.5 7.5 2.5 35 0 37.6-7.5 2.5-10 5-17.5 5-17.5s20.1 12.5 27.6 17.5c10 7.5 22.5 12.5 30.1 12.5 10 0 20-7.5 22.5-15 5-12.5-2.5-22.5-2.5-22.5s27.6 7.5 37.6 12.5c12.5 7.5 27.6 10 35.1 7.5 7.5-2.5 12.5-10 15-17.5 2.5-10 0-25-7.5-32.4-7.5-7.5-25-10-25-10s22.5-10 32.6-15c10-5 22.5-12.5 27.6-20 7.5-10 5-27.5-5-30z"/>
</svg>
